<svg xmlns="http://www.w3.org/2000/svg" width="120" height="40"><g fill="none"><path fill="#A9AAA9" d="M110.443 0H9.562c-.368 0-.731 0-1.098.002-.307.002-.612.008-.922.013-.668.016-1.343.057-2.01.176a6.462 6.462 0 0 0-4.711 3.43 6.623 6.623 0 0 0-.626 1.905C.075 6.19.032 6.861.015 7.53c-.009.308-.01.616-.015.922v23.139c.005.31.006.611.015.921.017.671.06 1.342.18 2.004.117.671.314 1.3.626 1.907a6.24 6.24 0 0 0 1.183 1.616 6.293 6.293 0 0 0 1.622 1.18c.612.312 1.236.51 1.906.632.667.119 1.342.158 2.01.176.31.007.615.011.922.011.367.002.73.002 1.098.002h100.881c.362 0 .727 0 1.087-.002.307 0 .62-.004.926-.011.672-.018 1.346-.057 2.005-.176a6.854 6.854 0 0 0 1.914-.632 6.328 6.328 0 0 0 1.622-1.18c.477-.47.875-1.02 1.184-1.616a6.563 6.563 0 0 0 .62-1.907c.125-.662.163-1.333.188-2.004.003-.31.003-.611.003-.921.008-.365.008-.726.008-1.096V9.545c0-.366 0-.73-.008-1.093 0-.306 0-.614-.003-.922-.025-.67-.063-1.34-.188-2.004a6.58 6.58 0 0 0-.62-1.904 6.489 6.489 0 0 0-2.806-2.803A6.845 6.845 0 0 0 114.46.19c-.66-.119-1.333-.16-2.005-.176-.306-.005-.619-.011-.926-.013C111.17 0 110.805 0 110.443 0"></path><path fill="#000" d="M8.469 39.164c-.306 0-.604-.004-.907-.01-.561-.016-1.226-.048-1.875-.164a5.889 5.889 0 0 1-1.66-.549 5.388 5.388 0 0 1-1.402-1.017 5.335 5.335 0 0 1-1.024-1.398 5.75 5.75 0 0 1-.544-1.659C.935 33.694.904 33.011.89 32.49a76.244 76.244 0 0 1-.015-.913V8.452s.01-.691.015-.894c.014-.525.045-1.208.166-1.874a5.724 5.724 0 0 1 .545-1.664 5.343 5.343 0 0 1 1.018-1.4 5.583 5.583 0 0 1 3.064-1.568c.676-.12 1.36-.151 1.881-.164L8.47.876h103.056l.916.013c.514.012 1.2.043 1.864.162a5.987 5.987 0 0 1 1.676.549c.514.263.985.606 1.395 1.017a5.54 5.54 0 0 1 1.027 1.405 5.8 5.8 0 0 1 .537 1.65c.115.632.151 1.28.174 1.89.003.283.003.588.003.89.009.376.009.733.009 1.094v20.95c0 .363 0 .718-.01 1.076 0 .325 0 .623-.003.93-.022.59-.058 1.238-.172 1.855a5.75 5.75 0 0 1-.541 1.672c-.27.52-.614.99-1.018 1.387-.415.419-.886.76-1.403 1.023a5.883 5.883 0 0 1-1.674.55c-.642.117-1.307.15-1.874.164-.293.007-.602.011-.9.011l-1.088.002L8.47 39.164"></path><path fill="#FFFFFE" d="M24.839 20.321c-.026-2.753 2.258-4.094 2.363-4.157-1.293-1.882-3.3-2.139-4.003-2.159-1.684-.177-3.316 1.006-4.175 1.006-.874 0-2.195-.989-3.618-.959-1.831.028-3.546 1.087-4.485 2.73-1.94 3.352-.493 8.278 1.364 10.987.93 1.327 2.016 2.81 3.438 2.756 1.39-.057 1.91-.885 3.59-.885 1.663 0 2.15.885 3.6.852 1.492-.024 2.433-1.333 3.33-2.672 1.074-1.52 1.506-3.02 1.523-3.095-.035-.012-2.9-1.102-2.927-4.404m-2.74-8.098c.748-.934 1.26-2.204 1.118-3.494-1.083.048-2.437.747-3.217 1.661-.69.805-1.306 2.124-1.147 3.365 1.216.09 2.466-.613 3.246-1.532M42.42 27.167h-4.746l-1.14 3.36h-2.01l4.496-12.43h2.09l4.495 12.43H43.56z"></path><path fill="#000" d="M38.166 25.617h3.762l-1.855-5.453h-.05z"></path><path fill="#FFFFFE" d="M55.315 25.996c0 2.816-1.51 4.626-3.79 4.626-1.293 0-2.32-.578-2.856-1.586h-.043v4.488h-1.864v-12.06h1.804v1.507h.034c.519-.972 1.624-1.602 2.891-1.602 2.305 0 3.824 1.818 3.824 4.627z"></path><path fill="#000" d="M53.4 25.996c0-1.835-.951-3.041-2.4-3.041-1.424 0-2.382 1.231-2.382 3.041 0 1.826.958 3.049 2.382 3.049 1.449 0 2.4-1.198 2.4-3.049z"></path><path fill="#FFFFFE" d="M65.307 25.996c0 2.816-1.51 4.626-3.789 4.626-1.293 0-2.32-.578-2.856-1.586h-.043v4.488h-1.864v-12.06h1.804v1.507h.034c.519-.972 1.623-1.602 2.891-1.602 2.305 0 3.823 1.818 3.823 4.627z"></path><path fill="#000" d="M63.391 25.996c0-1.835-.95-3.041-2.398-3.041-1.424 0-2.382 1.231-2.382 3.041 0 1.826.958 3.049 2.382 3.049 1.449 0 2.398-1.198 2.398-3.049z"></path><path fill="#FFFFFE" d="M71.912 27.063c.138 1.233 1.338 2.042 2.977 2.042 1.571 0 2.701-.809 2.701-1.92 0-.966-.682-1.543-2.295-1.939l-1.615-.388c-2.286-.552-3.348-1.619-3.348-3.352 0-2.144 1.873-3.617 4.532-3.617 2.631 0 4.435 1.473 4.495 3.617h-1.881c-.112-1.24-1.14-1.989-2.64-1.989-1.503 0-2.53.758-2.53 1.86 0 .88.656 1.397 2.262 1.793l1.372.335c2.555.604 3.617 1.628 3.617 3.447 0 2.325-1.856 3.782-4.808 3.782-2.761 0-4.627-1.423-4.747-3.671h1.908M83.58 19.32v2.143h1.727v1.474H83.58v4.996c0 .777.346 1.138 1.105 1.138.19 0 .492-.026.613-.043v1.464c-.207.053-.62.087-1.035.087-1.838 0-2.555-.69-2.555-2.447v-5.195h-1.32v-1.474h1.32V19.32h1.872m2.727 6.676c0-2.852 1.682-4.644 4.306-4.644 2.632 0 4.307 1.792 4.307 4.644 0 2.859-1.666 4.643-4.307 4.643-2.64 0-4.306-1.784-4.306-4.643z"></path><path fill="#000" d="M93.02 25.996c0-1.956-.897-3.111-2.407-3.111s-2.407 1.163-2.407 3.111c0 1.964.896 3.11 2.407 3.11 1.51 0 2.407-1.146 2.407-3.11z"></path><path fill="#FFFFFE" d="M96.456 21.463h1.778v1.543h.043c.285-1.025 1.113-1.637 2.183-1.637.268 0 .492.035.64.07v1.74c-.148-.06-.476-.113-.838-.113-1.2 0-1.942.81-1.942 2.085v5.375h-1.864v-9.063m13.235 6.402c-.25 1.645-1.855 2.774-3.909 2.774-2.641 0-4.28-1.766-4.28-4.6 0-2.843 1.648-4.687 4.202-4.687 2.512 0 4.091 1.723 4.091 4.47v.638h-6.413v.113c0 1.55.976 2.566 2.443 2.566 1.035 0 1.847-.49 2.097-1.274h1.77z"></path><path fill="#000" d="M103.391 25.16h4.54c-.044-1.387-.932-2.3-2.227-2.3-1.286 0-2.217.93-2.313 2.3z"></path><path fill="#FFFFFE" d="M37.932 8.74c1.775 0 2.816 1.088 2.816 2.968 0 1.908-1.033 3.005-2.816 3.005h-2.16V8.74h2.16z"></path><path fill="#000" d="M36.7 13.868h1.129c1.251 0 1.972-.778 1.972-2.148 0-1.35-.733-2.136-1.972-2.136H36.7v4.284z"></path><path fill="#FFFFFE" d="M41.798 12.456c0-1.452.812-2.338 2.131-2.338 1.315 0 2.128.886 2.128 2.338 0 1.462-.81 2.344-2.128 2.344-1.323 0-2.131-.882-2.131-2.344z"></path><path fill="#000" d="M45.14 12.456c0-.977-.44-1.547-1.211-1.547-.775 0-1.21.57-1.21 1.547 0 .985.435 1.553 1.21 1.553.771 0 1.211-.572 1.211-1.553z"></path><path fill="#FFFFFE" d="M51.718 14.713h-.925l-.932-3.32h-.072l-.928 3.32h-.916L46.7 10.205h.904l.809 3.44h.067l.928-3.44h.855l.928 3.44h.07l.806-3.44h.891l-1.24 4.508m2.287-4.508h.858v.716h.066c.22-.5.668-.803 1.348-.803 1.007 0 1.563.604 1.563 1.677v2.918h-.892v-2.695c0-.725-.314-1.085-.974-1.085-.66 0-1.078.44-1.078 1.142v2.638h-.89v-4.508m5.254 4.508h.891V8.445h-.891zm2.13-2.257c0-1.452.812-2.338 2.13-2.338 1.316 0 2.129.886 2.129 2.338 0 1.462-.81 2.344-2.128 2.344-1.323 0-2.131-.882-2.131-2.344z"></path><path fill="#000" d="M64.732 12.456c0-.977-.44-1.547-1.211-1.547-.775 0-1.21.57-1.21 1.547 0 .985.435 1.553 1.21 1.553.771 0 1.211-.572 1.211-1.553z"></path><path fill="#FFFFFE" d="M66.587 13.437c0-.81.605-1.279 1.68-1.345l1.223-.07v-.39c0-.475-.315-.744-.924-.744-.497 0-.842.182-.942.5h-.862c.091-.773.82-1.27 1.845-1.27 1.132 0 1.77.563 1.77 1.515v3.08h-.857v-.634h-.072c-.268.451-.762.708-1.355.708-.87 0-1.506-.526-1.506-1.35z"></path><path fill="#000" d="M69.49 13.053v-.377l-1.103.07c-.621.042-.903.253-.903.65 0 .406.352.642.836.642.672 0 1.17-.426 1.17-.985z"></path><path fill="#FFFFFE" d="M71.548 12.456c0-1.424.734-2.326 1.875-2.326.618 0 1.14.294 1.384.79h.068V8.446h.89v6.268h-.853V14h-.071c-.27.493-.797.787-1.418.787-1.149 0-1.875-.902-1.875-2.33z"></path><path fill="#000" d="M72.469 12.456c0 .956.451 1.532 1.206 1.532.751 0 1.216-.584 1.216-1.528 0-.939-.47-1.531-1.216-1.531-.75 0-1.206.58-1.206 1.527z"></path><path fill="#FFFFFE" d="M79.452 12.456c0-1.452.814-2.338 2.131-2.338 1.315 0 2.128.886 2.128 2.338 0 1.462-.809 2.344-2.128 2.344-1.321 0-2.13-.882-2.13-2.344z"></path><path fill="#000" d="M82.795 12.456c0-.977-.44-1.547-1.212-1.547-.775 0-1.21.57-1.21 1.547 0 .985.435 1.553 1.21 1.553.772 0 1.212-.572 1.212-1.553z"></path><path fill="#FFFFFE" d="M84.908 10.205h.857v.716h.066c.22-.5.668-.803 1.348-.803 1.008 0 1.563.604 1.563 1.677v2.918h-.891v-2.695c0-.725-.315-1.085-.975-1.085-.659 0-1.078.44-1.078 1.142v2.638h-.89v-4.508m8.87-1.122v1.142h.978v.75h-.978v2.317c0 .473.195.68.638.68.138 0 .216-.01.34-.021v.74a2.875 2.875 0 0 1-.485.047c-.99 0-1.385-.349-1.385-1.218v-2.545h-.717v-.75h.717V9.083h.892m2.196-.638h.883v2.484h.07c.219-.505.696-.807 1.377-.807.962 0 1.556.609 1.556 1.68v2.91h-.893v-2.69c0-.72-.336-1.085-.966-1.085-.73 0-1.137.46-1.137 1.143v2.633h-.89V8.445m5.946 3.598h2.282c-.021-.708-.453-1.168-1.112-1.168-.66 0-1.12.464-1.17 1.168z"></path><path fill="#FFFFFE" d="M105.055 13.495c-.202.808-.924 1.305-1.956 1.305-1.294 0-2.086-.886-2.086-2.328 0-1.44.81-2.354 2.082-2.354 1.256 0 2.014.857 2.014 2.272v.31h-3.189v.05c.03.79.49 1.292 1.203 1.292.54 0 .91-.195 1.075-.547h.857z"></path></g></svg>