<svg fill="#ff2b85" aria-hidden="true" focusable="false" class="fl-brand-primary" width="24" height="24" viewBox="0 0 24 24" xmlns="http://www.w3.org/2000/svg"><path fill-rule="evenodd" clip-rule="evenodd" d="M12.0021 2C14.5418 2 16.4241 3.6512 16.5538 6.15854H19.8491C20.4014 6.15854 20.8491 6.60625 20.8491 7.15854C20.8491 7.20585 20.8457 7.25311 20.8391 7.29996L19.1248 19.1414C19.0544 19.6341 18.6325 20 18.1348 20H5.86942C5.37176 20 4.94984 19.6341 4.87947 19.1414L3.16518 7.29996C3.08707 6.75322 3.46697 6.24669 4.0137 6.16859C4.06055 6.16189 4.10781 6.15854 4.15513 6.15854L7.36129 6.16397C7.49108 3.65663 9.46248 2 12.0021 2ZM17.5607 16.25H6.44235C6.22143 16.25 6.04235 16.4291 6.04235 16.65C6.04235 16.669 6.04369 16.6879 6.04638 16.7067L6.25397 18.1567C6.28217 18.3537 6.45092 18.5 6.64993 18.5H17.3533C17.5523 18.5 17.7211 18.3537 17.7492 18.1566L17.9567 16.7066C17.988 16.488 17.836 16.2853 17.6174 16.254C17.5986 16.2513 17.5797 16.25 17.5607 16.25ZM18.8109 7.65854H5.19233C4.97142 7.65854 4.79233 7.83762 4.79233 8.05854C4.79233 8.32251 4.79367 8.09637 4.79635 8.11511L5.71793 14.4066C5.74609 14.6036 5.91486 14.75 6.11391 14.75H17.8891C18.0882 14.75 18.2569 14.6036 18.2851 14.4066L19.2069 8.11513C19.2381 7.89643 19.0862 7.69381 18.8675 7.66256C18.8487 7.65988 18.8298 7.65854 18.8109 7.65854ZM12.0021 3.40323C10.4163 3.40323 9.15495 4.32251 8.91234 5.80175C8.88507 5.96802 8.98943 6.12701 9.15495 6.15854C9.17377 6.16212 9.19289 6.16392 9.21204 6.1639L14.7134 6.15847C14.8772 6.15843 15.0099 6.02566 15.0099 5.86189C15.0099 5.84361 14.9631 5.82209 15.0049 5.80742C14.655 4.32251 13.5918 3.40323 12.0021 3.40323Z"></path></svg>