<svg aria-hidden="true" focusable="false" class="fl-none" width="24" height="24" viewBox="0 0 24 24" xmlns="http://www.w3.org/2000/svg"><path fill-rule="evenodd" clip-rule="evenodd" d="M12 4C16.4183 4 20 7.58172 20 12C20 16.4183 16.4183 20 12 20C7.58172 20 4 16.4183 4 12C4 7.58172 7.58172 4 12 4ZM12 5.5C8.41015 5.5 5.5 8.41015 5.5 12C5.5 15.5899 8.41015 18.5 12 18.5C15.5899 18.5 18.5 15.5899 18.5 12C18.5 8.41015 15.5899 5.5 12 5.5ZM14.4749 10.5858L13.3435 11.7172C13.1873 11.8734 13.1873 12.1266 13.3435 12.2828L14.4749 13.4142C14.7678 13.7071 14.7678 14.182 14.4749 14.4749C14.182 14.7678 13.7071 14.7678 13.4142 14.4749L12.2828 13.3435C12.1266 13.1873 11.8734 13.1873 11.7172 13.3435L10.5858 14.4749C10.2929 14.7678 9.81802 14.7678 9.52513 14.4749C9.23223 14.182 9.23223 13.7071 9.52513 13.4142L10.6565 12.2828C10.8127 12.1266 10.8127 11.8734 10.6565 11.7172L9.52513 10.5858C9.23223 10.2929 9.23223 9.81802 9.52513 9.52513C9.81802 9.23223 10.2929 9.23223 10.5858 9.52513L11.7172 10.6565C11.8734 10.8127 12.1266 10.8127 12.2828 10.6565L13.4142 9.52513C13.7071 9.23223 14.182 9.23223 14.4749 9.52513C14.7678 9.81802 14.7678 10.2929 14.4749 10.5858Z"></path></svg>