<svg width="160" height="32" viewBox="0 0 300 64" fill="none" xmlns="http://www.w3.org/2000/svg"><mask id="mask0_1088_35094" style="mask-type:luminance" maskUnits="userSpaceOnUse" x="0" y="10" width="62" height="45"><path fill-rule="evenodd" clip-rule="evenodd" d="M0 10H61.7303V55H0V10Z" fill="white"></path></mask><g mask="url(#mask0_1088_35094)"><path fill-rule="evenodd" clip-rule="evenodd" d="M52.503 31.1474C52.488 31.1544 52.48 31.1614 52.468 31.1664L46.336 33.6684L46.149 33.7534L44.655 40.5824C44.555 40.8154 44.257 40.8704 44.056 40.6754L39.589 35.3934L39.567 35.3784L14.379 46.1874C14.357 46.1994 14.332 46.2044 14.308 46.2044C14.214 46.2044 14.139 46.1294 14.139 46.0344C14.139 45.9804 14.165 45.9304 14.207 45.8994L35.984 29.5984L33.229 23.3084C33.091 23.0214 33.345 22.7164 33.682 22.8004H33.685L40.357 24.4454L45.538 19.8334V19.8344C45.763 19.6594 46.066 19.7844 46.122 20.0604L46.629 26.9904L52.604 30.4854C52.86 30.6494 52.823 31.0274 52.503 31.1474M49.458 11.3434C41.728 8.31042 33.226 10.5874 27.979 16.4184L7.50504 38.3504C7.23004 38.6454 7.35704 39.0154 7.69304 39.0654L13.147 39.4004C13.584 39.4274 13.638 39.8024 13.418 40.0604L0.0850411 54.4424C-0.145959 54.6924 0.133041 55.0834 0.451041 54.9844L19.487 48.9694C19.89 48.8314 20.2 49.1894 20.029 49.5034L17.483 54.0054C17.352 54.2624 17.599 54.6144 17.919 54.5904L45.363 48.4774C51.922 47.4394 57.776 43.0624 60.379 36.4354C64.298 26.4884 59.401 15.2554 49.458 11.3434" fill="#D61F26"></path></g><path fill-rule="evenodd" clip-rule="evenodd" d="M123.031 44.7135H116.777L121.67 21.7975L128.49 19.2905L123.031 44.7135Z" fill="#D61F26"></path><path fill-rule="evenodd" clip-rule="evenodd" d="M109.598 31.5875C108.101 31.5875 107.24 32.8265 106.89 34.2645C109.851 34.2645 110.747 33.3395 110.747 32.5715C110.747 32.0325 110.265 31.5875 109.598 31.5875M106.19 38.2775C106.156 38.4355 106.124 38.7255 106.124 38.8825C106.124 39.9035 106.823 40.2525 108.675 40.2525C110.33 40.2525 112.687 39.8385 114.059 39.3615V44.0465C112.307 44.6835 109.563 45.0325 107.365 45.0325C102.202 45.0325 99.7168 43.6295 99.7168 38.9475C99.7168 34.3525 101.851 27.1855 110.077 27.1855C115.3 27.1855 116.861 29.5475 116.861 32.0325C116.861 35.2505 114.091 37.9905 106.19 38.2775" fill="#D61F26"></path><path fill-rule="evenodd" clip-rule="evenodd" d="M134.389 26.365C132.257 26.365 130.885 24.995 130.885 23.114C130.885 20.66 132.607 19.29 134.739 19.29C136.907 19.29 138.247 20.66 138.247 22.509C138.247 24.995 136.557 26.365 134.389 26.365" fill="#D61F26"></path><path fill-rule="evenodd" clip-rule="evenodd" d="M130.001 27.7627H136.438L133.183 44.4607H126.682L128.975 32.7347" fill="#D61F26"></path><path fill-rule="evenodd" clip-rule="evenodd" d="M154.983 27.7627C152.751 33.3717 150.296 38.8517 147.174 44.4607H139.206C138.187 39.1687 137.74 33.5927 137.869 27.7627H144.372C144.241 30.5027 144.275 33.3087 144.431 35.9177C144.465 36.6197 144.531 37.2877 144.592 37.9617H144.629C144.913 37.2877 145.229 36.6197 145.517 35.9177C146.631 33.1737 147.651 30.1867 148.421 27.7627H154.983Z" fill="#D61F26"></path><path fill-rule="evenodd" clip-rule="evenodd" d="M163.682 31.5875C162.187 31.5875 161.322 32.8265 160.968 34.2645C163.937 34.2645 164.829 33.3395 164.829 32.5715C164.829 32.0325 164.353 31.5875 163.682 31.5875M160.274 38.2775C160.243 38.4355 160.206 38.7255 160.206 38.8825C160.206 39.9035 160.911 40.2525 162.756 40.2525C164.414 40.2525 166.773 39.8385 168.143 39.3615V44.0465C166.389 44.6835 163.649 45.0325 161.452 45.0325C156.286 45.0325 153.801 43.6295 153.801 38.9475C153.801 34.3525 155.935 27.1855 164.16 27.1855C169.386 27.1855 170.945 29.5475 170.945 32.0325C170.945 35.2505 168.177 37.9905 160.274 38.2775" fill="#D61F26"></path><path fill-rule="evenodd" clip-rule="evenodd" d="M183.445 33.656C183.091 33.56 182.389 33.463 181.881 33.463C180.445 33.463 179.298 34.899 178.786 37.544L177.454 44.461H170.945L174.202 27.763H179.079L179.237 29.989C180.733 28.143 181.915 27.186 183.73 27.186C184.557 27.186 185.005 27.249 185.225 27.314L183.445 33.656Z" fill="#D61F26"></path><path fill-rule="evenodd" clip-rule="evenodd" d="M203.774 27.7627C200.903 35.2197 198.355 40.6687 195.805 44.4317C192.109 49.9467 188.857 51.2207 185.508 51.2207C184.52 51.2207 183.47 50.9617 182.959 50.7077L183.981 45.8967H186.212C187.328 45.8967 187.803 45.4477 188.539 44.4607C187.295 39.9687 186.688 33.6907 186.752 27.7627H193.288C193.155 30.4687 193.189 33.2767 193.351 35.8247C193.383 36.5547 193.443 37.2577 193.506 37.9617H193.541C193.827 37.2877 194.143 36.6197 194.433 35.8877C195.517 33.2417 196.571 30.2137 197.267 27.7627H203.774Z" fill="#D61F26"></path><path fill-rule="evenodd" clip-rule="evenodd" d="M228.765 44.4609H221.908L223.535 36.0449H217.732L216.105 44.4609H209.256L213.589 22.2139H220.444L218.883 30.1519H224.684L226.245 22.2139H233.094L228.765 44.4609Z" fill="#D61F26"></path><path fill-rule="evenodd" clip-rule="evenodd" d="M242.271 31.5875C240.773 31.5875 239.915 32.8265 239.564 34.2645C242.529 34.2645 243.424 33.3395 243.424 32.5715C243.424 32.0325 242.941 31.5875 242.271 31.5875M238.862 38.2775C238.829 38.4355 238.8 38.7255 238.8 38.8825C238.8 39.9035 239.502 40.2525 241.346 40.2525C243.006 40.2525 245.365 39.8385 246.735 39.3615V44.0465C244.983 44.6835 242.241 45.0325 240.04 45.0325C234.876 45.0325 232.391 43.6295 232.391 38.9475C232.391 34.3525 234.527 27.1855 242.75 27.1855C247.978 27.1855 249.542 29.5475 249.542 32.0325C249.542 35.2505 246.763 37.9905 238.862 38.2775" fill="#D61F26"></path><path fill-rule="evenodd" clip-rule="evenodd" d="M262.031 33.656C261.681 33.56 260.985 33.463 260.472 33.463C259.039 33.463 257.889 34.899 257.38 37.544L256.04 44.461H249.543L252.79 27.763H257.665L257.826 29.989C259.325 28.143 260.501 27.186 262.316 27.186C263.149 27.186 263.593 27.249 263.819 27.314L262.031 33.656Z" fill="#D61F26"></path><mask id="mask1_1088_35094" style="mask-type:luminance" maskUnits="userSpaceOnUse" x="262" y="27" width="20" height="19"><path fill-rule="evenodd" clip-rule="evenodd" d="M262.734 27.1851H281.091V45.0321H262.734V27.1851Z" fill="white"></path></mask><g mask="url(#mask1_1088_35094)"><path fill-rule="evenodd" clip-rule="evenodd" d="M272.709 32.3181C270.096 32.3181 269.394 36.3011 269.394 38.0881C269.394 39.5211 269.999 39.9341 271.182 39.9341C273.759 39.9341 274.428 35.9491 274.428 34.1371C274.428 32.7341 273.856 32.3181 272.709 32.3181M270.283 45.0321C265.218 45.0321 262.734 42.8641 262.734 38.5311C262.734 33.7181 265.124 27.1851 273.54 27.1851C278.574 27.1851 281.091 29.4171 281.091 33.6901C281.091 38.5981 278.699 45.0321 270.283 45.0321" fill="#D61F26"></path></g><path fill-rule="evenodd" clip-rule="evenodd" d="M85.7605 39.1688H84.4855L86.7785 27.4398H88.5665C91.2735 27.4398 92.2615 29.0398 92.2615 31.2328C92.2615 35.6658 89.8035 39.1688 85.7605 39.1688V39.1688ZM91.8335 27.8558L96.1665 23.6978C94.4765 22.6808 92.1565 22.2148 89.2625 22.2148H87.7985H80.9775L76.6465 44.4618H83.4615H85.2845C95.3205 44.4618 99.3325 37.4498 99.3325 30.1518C99.3325 28.2568 98.9255 26.7408 98.1375 25.5628L91.8335 27.8558Z" fill="#D61F26"></path></svg>