<svg aria-hidden="true" focusable="false" class="fl-none" width="24" height="24" viewBox="0 0 24 24" xmlns="http://www.w3.org/2000/svg"><path fill-rule="evenodd" clip-rule="evenodd" d="M21 12C21 16.9706 16.9706 21 12 21C7.02944 21 3 16.9706 3 12C3 7.02944 7.02944 3 12 3C16.9706 3 21 7.02944 21 12ZM10.6635 19.3813C9.79267 18.1369 9.11658 16.9361 8.65036 15.75H5.50337C6.58707 17.6234 8.45784 18.9845 10.6635 19.3813ZM4.84335 14.25H8.17237C7.98964 13.4966 7.89523 12.7442 7.8931 11.9853C7.891 11.2379 7.97842 10.4952 8.15242 9.75H4.84335C4.62027 10.4603 4.5 11.2161 4.5 12C4.5 12.7839 4.62027 13.5397 4.84335 14.25ZM5.50337 8.25H8.61663C9.06884 7.07159 9.72906 5.8752 10.586 4.63309C8.41405 5.04747 6.57436 6.39858 5.50337 8.25ZM18.4966 15.75C17.4415 17.574 15.6402 18.9124 13.5102 19.3479C14.3698 18.1154 15.038 16.9255 15.5 15.75H18.4966ZM19.1566 14.25H15.978C16.1608 13.4966 16.2552 12.7442 16.2573 11.9853C16.2594 11.2379 16.172 10.4952 15.998 9.75H19.1566C19.3797 10.4603 19.5 11.2161 19.5 12C19.5 12.7839 19.3797 13.5397 19.1566 14.25ZM18.4966 8.25H15.5338C15.0859 7.08283 14.4339 5.89803 13.5888 4.66862C15.6845 5.12065 17.4545 6.44847 18.4966 8.25ZM12.0752 5.12312C12.8682 6.22942 13.4764 7.26325 13.9116 8.25H10.2388C10.674 7.26325 11.2822 6.22942 12.0752 5.12312ZM9.69994 9.75H14.4504C14.6591 10.5113 14.7593 11.2505 14.7573 11.981C14.7552 12.7258 14.6467 13.4775 14.4269 14.25H9.72354C9.50364 13.4775 9.39519 12.7258 9.3931 11.981C9.39105 11.2505 9.49129 10.5113 9.69994 9.75ZM10.2783 15.75H13.8721C13.4389 16.7093 12.8428 17.7109 12.0752 18.7788C11.3076 17.7109 10.7115 16.7093 10.2783 15.75Z"></path></svg>