<svg width="135" height="40" viewBox="0 0 135 40" xmlns="http://www.w3.org/2000/svg"><defs><linearGradient x1="61.043%" y1="4.97%" x2="26.517%" y2="71.939%" id="a"><stop stop-color="#00A0FF" offset="0%"></stop><stop stop-color="#00A1FF" offset=".657%"></stop><stop stop-color="#00BEFF" offset="26.01%"></stop><stop stop-color="#00D2FF" offset="51.22%"></stop><stop stop-color="#00DFFF" offset="76.04%"></stop><stop stop-color="#00E3FF" offset="100%"></stop></linearGradient><linearGradient x1="107.604%" y1="50.085%" x2="-130.554%" y2="50.085%" id="b"><stop stop-color="#FFE000" offset="0%"></stop><stop stop-color="#FFBD00" offset="40.87%"></stop><stop stop-color="orange" offset="77.54%"></stop><stop stop-color="#FF9C00" offset="100%"></stop></linearGradient><linearGradient x1="86.25%" y1="30.901%" x2="-50.108%" y2="135.959%" id="c"><stop stop-color="#FF3A44" offset="0%"></stop><stop stop-color="#C31162" offset="100%"></stop></linearGradient><linearGradient x1="-18.781%" y1="-11.805%" x2="42.11%" y2="35.108%" id="d"><stop stop-color="#32A071" offset="0%"></stop><stop stop-color="#2DA771" offset="6.85%"></stop><stop stop-color="#15CF74" offset="47.62%"></stop><stop stop-color="#06E775" offset="80.09%"></stop><stop stop-color="#00F076" offset="100%"></stop></linearGradient></defs><g fill="none" fill-rule="nonzero"><path d="M130 0H5C2.25 0 0 2.25 0 5v30c0 2.75 2.25 5 5 5h125c2.75 0 5-2.25 5-5V5c0-2.75-2.25-5-5-5z" fill="#A6A6A6"></path><path d="M130 .8a4.2 4.2 0 014.2 4.2v30a4.2 4.2 0 01-4.2 4.2H5A4.2 4.2 0 01.8 35V5A4.2 4.2 0 015 .8h125" fill="#000"></path><path d="M47.42 10.24c0 .84-.25 1.51-.75 2-.56.59-1.3.89-2.2.89-.87 0-1.6-.3-2.21-.9-.61-.6-.91-1.35-.91-2.23 0-.89.3-1.63.91-2.23.61-.6 1.34-.9 2.21-.9.43 0 .84.08 1.23.25.39.17.7.39.94.67l-.53.53c-.4-.47-.94-.71-1.64-.71-.63 0-1.18.22-1.64.67-.46.44-.69 1.02-.69 1.73s.23 1.29.69 1.73c.46.44 1.01.67 1.64.67.67 0 1.23-.22 1.68-.67.29-.29.46-.7.5-1.22h-2.18V9.8h2.91c.02.14.04.29.04.44zM52.03 7.73H49.3v1.9h2.46v.72H49.3v1.9h2.73v.74h-3.5v-6h3.5zM55.28 13h-.77V7.74h-1.68V7h4.12v.74h-1.68V13zM59.94 13V7h.77v6zM64.13 13h-.77V7.74h-1.68V7h4.12v.74h-1.68V13zM73.61 12.22c-.59.61-1.32.91-2.2.91-.88 0-1.61-.3-2.2-.91-.59-.61-.88-1.35-.88-2.22 0-.88.29-1.62.88-2.22.59-.61 1.32-.91 2.2-.91.87 0 1.6.3 2.2.91.59.61.89 1.35.89 2.22-.01.87-.3 1.61-.89 2.22z" stroke="#FFF" stroke-width=".2" fill="#FFF"></path><path d="M69.78 11.72c.44.45.99.67 1.63.67.64 0 1.19-.22 1.63-.67.44-.45.67-1.02.67-1.72s-.22-1.27-.67-1.72c-.44-.45-.99-.67-1.63-.67-.64 0-1.19.22-1.63.67-.44.45-.67 1.02-.67 1.72s.22 1.27.67 1.72z" stroke="#FFF" stroke-width=".2" fill="#000"></path><path stroke="#FFF" stroke-width=".2" fill="#FFF" d="M75.57 13V7h.94l2.92 4.67h.03l-.03-1.16V7h.77v6h-.8l-3.05-4.89h-.04l.03 1.16v3.74h-.77z"></path><path d="M68.13 21.75c-2.35 0-4.27 1.79-4.27 4.25 0 2.45 1.92 4.25 4.27 4.25 2.35 0 4.27-1.8 4.27-4.25 0-2.46-1.91-4.25-4.27-4.25z" fill="#FFF"></path><path d="M68.13 28.58c-1.29 0-2.4-1.06-2.4-2.58 0-1.53 1.11-2.58 2.4-2.58 1.29 0 2.4 1.05 2.4 2.58 0 1.52-1.11 2.58-2.4 2.58z" fill="#000"></path><path d="M58.82 21.75c-2.35 0-4.27 1.79-4.27 4.25 0 2.45 1.92 4.25 4.27 4.25 2.35 0 4.27-1.8 4.27-4.25 0-2.46-1.92-4.25-4.27-4.25z" fill="#FFF"></path><path d="M58.82 28.58c-1.29 0-2.4-1.06-2.4-2.58 0-1.53 1.11-2.58 2.4-2.58 1.29 0 2.4 1.05 2.4 2.58 0 1.52-1.11 2.58-2.4 2.58z" fill="#000"></path><path d="M47.74 23.05v1.8h4.32c-.13 1.01-.47 1.76-.98 2.27-.63.63-1.61 1.32-3.33 1.32-2.66 0-4.74-2.14-4.74-4.8 0-2.66 2.08-4.8 4.74-4.8 1.43 0 2.48.56 3.25 1.29l1.27-1.27c-1.08-1.03-2.51-1.82-4.53-1.82-3.64 0-6.7 2.96-6.7 6.61 0 3.64 3.06 6.61 6.7 6.61 1.97 0 3.45-.64 4.61-1.85 1.19-1.19 1.56-2.87 1.56-4.22 0-.42-.03-.81-.1-1.13h-6.07v-.01zM93.05 24.45c-.35-.95-1.43-2.71-3.64-2.71-2.19 0-4.01 1.72-4.01 4.25 0 2.38 1.8 4.25 4.22 4.25 1.95 0 3.08-1.19 3.54-1.88l-1.45-.97c-.48.71-1.14 1.18-2.09 1.18s-1.63-.44-2.06-1.29l5.69-2.35-.2-.48z" fill="#FFF"></path><path d="M87.25 25.87c-.05-1.64 1.27-2.48 2.22-2.48.74 0 1.37.37 1.58.9l-3.8 1.58z" fill="#000"></path><path fill="#FFF" d="M82.63 30h1.87V17.5h-1.87zM79.57 22.7h-.06c-.42-.5-1.22-.95-2.24-.95-2.13 0-4.08 1.87-4.08 4.27 0 2.38 1.95 4.24 4.08 4.24 1.01 0 1.82-.45 2.24-.97h.06v.61c0 1.63-.87 2.5-2.27 2.5-1.14 0-1.85-.82-2.14-1.51l-1.63.68c.47 1.13 1.71 2.51 3.77 2.51 2.19 0 4.04-1.29 4.04-4.43v-7.64h-1.77v.69z"></path><path d="M77.42 28.58c-1.29 0-2.37-1.08-2.37-2.56 0-1.5 1.08-2.59 2.37-2.59 1.27 0 2.27 1.1 2.27 2.59 0 1.48-.99 2.56-2.27 2.56z" fill="#000"></path><path d="M101.8 17.49h-4.47v12.5h1.87v-4.74h2.61c2.07 0 4.1-1.5 4.1-3.88s-2.04-3.88-4.11-3.88z" fill="#FFF"></path><path d="M101.85 23.52H99.2v-4.29h2.65c1.4 0 2.19 1.16 2.19 2.14 0 .98-.79 2.15-2.19 2.15z" fill="#000"></path><path d="M113.38 21.72c-1.35 0-2.75.6-3.33 1.91l1.66.69c.35-.69 1.01-.92 1.7-.92.97 0 1.95.58 1.96 1.61v.13c-.34-.19-1.06-.48-1.95-.48-1.79 0-3.6.98-3.6 2.81 0 1.67 1.46 2.75 3.1 2.75 1.25 0 1.95-.56 2.38-1.22h.06v.97h1.8v-4.79c.02-2.22-1.64-3.46-3.78-3.46z" fill="#FFF"></path><path d="M113.16 28.58c-.61 0-1.46-.31-1.46-1.06 0-.96 1.06-1.33 1.98-1.33.82 0 1.21.18 1.7.42a2.264 2.264 0 01-2.22 1.97z" fill="#000"></path><path fill="#FFF" d="M123.74 22l-2.14 5.42h-.06L119.32 22h-2.01l3.33 7.58-1.9 4.21h1.95L125.82 22zM106.93 30h1.87V17.5h-1.87z"></path><path d="M10.43 7.53c-.29.31-.46.79-.46 1.4v22.12c0 .62.17 1.1.46 1.4l.07.07 12.39-12.39v-.3L10.51 7.46l-.08.07z" fill="url(#a)"></path><path d="M27.03 24.27l-4.13-4.13v-.3l4.13-4.13.09.05 4.89 2.78c1.4.79 1.4 2.09 0 2.89l-4.89 2.78-.09.06z" fill="url(#b)"></path><path d="M27.12 24.22L22.9 20 10.43 32.46c.46.49 1.22.55 2.08.06l14.61-8.3" fill="url(#c)"></path><path d="M27.12 15.77l-14.61-8.3c-.86-.49-1.62-.43-2.08.06l12.46 12.46 4.23-4.22z" fill="url(#d)"></path></g></svg>