<svg aria-hidden="true" fill="#e21b70" focusable="false" class="fl-none" width="24" height="24" viewBox="0 0 24 24" xmlns="http://www.w3.org/2000/svg"><path d="M12 4.51405C14.4518 4.51405 14.7583 4.51405 15.7543 4.59044C18.2827 4.66683 19.432 5.88905 19.5086 8.3335C19.5852 9.32655 19.5852 9.55572 19.5852 12.0002C19.5852 14.4446 19.5852 14.7502 19.5086 15.6668C19.432 18.1113 18.2061 19.3335 15.7543 19.4099C14.7583 19.4863 14.5284 19.4863 12 19.4863C9.54821 19.4863 9.24173 19.4863 8.32231 19.4099C5.7939 19.3335 4.64463 18.1113 4.56801 15.6668C4.49139 14.6738 4.49139 14.4446 4.49139 12.0002C4.49139 9.55572 4.49139 9.25016 4.56801 8.3335C4.64463 5.88905 5.87052 4.66683 8.32231 4.59044C9.24173 4.51405 9.54821 4.51405 12 4.51405ZM12 2.8335C9.47159 2.8335 9.16511 2.8335 8.24569 2.90988C4.87448 3.06266 3.03564 4.896 2.8824 8.25711C2.80579 9.17377 2.80579 9.47933 2.80579 12.0002C2.80579 14.521 2.80579 14.8266 2.8824 15.7432C3.03564 19.1043 4.87448 20.9377 8.24569 21.0904C9.16511 21.1668 9.47159 21.1668 12 21.1668C14.5284 21.1668 14.8349 21.1668 15.7543 21.0904C19.1255 20.9377 20.9643 19.1043 21.1176 15.7432C21.1942 14.8266 21.1942 14.521 21.1942 12.0002C21.1942 9.47933 21.1942 9.17377 21.1176 8.25711C20.9643 4.896 19.1255 3.06266 15.7543 2.90988C14.8349 2.8335 14.5284 2.8335 12 2.8335ZM12 7.26405C9.39497 7.26405 7.24965 9.40294 7.24965 12.0002C7.24965 14.5974 9.39497 16.7363 12 16.7363C14.605 16.7363 16.7503 14.5974 16.7503 12.0002C16.7503 9.40294 14.605 7.26405 12 7.26405ZM12 15.0557C10.3144 15.0557 8.93526 13.6807 8.93526 12.0002C8.93526 10.3196 10.3144 8.94461 12 8.94461C13.6856 8.94461 15.0647 10.3196 15.0647 12.0002C15.0647 13.6807 13.6856 15.0557 12 15.0557ZM16.9036 6.04183C16.2906 6.04183 15.8309 6.50016 15.8309 7.11127C15.8309 7.72238 16.2906 8.18072 16.9036 8.18072C17.5165 8.18072 17.9762 7.72238 17.9762 7.11127C17.9762 6.50016 17.5165 6.04183 16.9036 6.04183Z"></path></svg>